<?xml version="1.0" standalone="no"?>
<!DOCTYPE svg PUBLIC "-//W3C//DTD SVG 20010904//EN"
 "http://www.w3.org/TR/2001/REC-SVG-20010904/DTD/svg10.dtd">
<svg version="1.0" xmlns="http://www.w3.org/2000/svg"
 width="1024.000000pt" height="1024.000000pt" viewBox="0 0 1024.000000 1024.000000"
 preserveAspectRatio="xMidYMid meet">
<metadata>
Created by potrace 1.11, written by Peter Selinger 2001-2013
</metadata>
<g transform="translate(0.000000,1024.000000) scale(0.100000,-0.100000)"
fill="#000000" stroke="none">
<path d="M5027 9415 c-1 -2 -51 -5 -112 -9 -128 -7 -177 -12 -300 -33 -49 -8
-101 -16 -115 -18 -14 -2 -88 -19 -165 -39 -311 -78 -568 -184 -865 -357 -122
-71 -404 -277 -490 -358 -166 -157 -290 -287 -380 -401 -29 -36 -61 -76 -72
-90 -72 -90 -224 -335 -301 -486 -141 -276 -255 -611 -307 -904 -19 -112 -24
-143 -35 -235 -18 -149 -24 -427 -12 -605 35 -540 207 -1077 495 -1540 59 -95
207 -303 243 -340 8 -9 38 -45 68 -80 56 -66 234 -247 306 -310 359 -316 789
-552 1245 -685 119 -34 323 -78 419 -90 30 -4 63 -9 75 -11 129 -25 666 -26
801 0 32 6 97 16 130 20 56 8 190 37 300 66 536 143 1029 427 1430 825 335
331 573 688 748 1120 38 94 112 307 122 355 2 8 15 62 29 120 28 117 30 128
50 255 21 131 25 168 33 285 12 186 7 458 -12 610 -2 19 -7 55 -10 80 -3 25
-7 56 -10 70 -3 14 -7 39 -10 55 -9 58 -46 231 -57 270 -6 22 -12 42 -13 45
-1 3 -7 25 -14 50 -52 190 -163 456 -275 665 -77 144 -238 382 -333 494 -21
24 -45 54 -53 65 -28 40 -228 243 -321 327 -226 202 -554 414 -827 534 -161
71 -424 163 -513 180 -11 2 -28 6 -37 9 -9 3 -32 8 -51 11 -19 3 -37 7 -40 9
-3 2 -22 7 -41 10 -19 3 -58 10 -87 15 -67 13 -175 26 -298 36 -72 6 -333 13
-338 10z m373 -558 c14 -3 48 -8 75 -11 85 -11 116 -16 233 -42 951 -211 1727
-940 2015 -1894 38 -126 70 -269 93 -424 21 -138 26 -537 9 -676 -20 -159 -25
-188 -47 -285 -11 -49 -21 -97 -23 -105 -14 -67 -75 -258 -101 -317 -8 -17
-14 -36 -14 -42 0 -6 -4 -19 -9 -29 -6 -9 -36 -71 -67 -137 -395 -824 -1164
-1390 -2072 -1524 -193 -29 -549 -32 -692 -7 -14 3 -47 7 -75 11 -181 22 -481
106 -665 187 -161 71 -323 161 -470 262 -88 60 -80 54 -180 136 -147 120 -303
279 -425 435 -33 42 -155 214 -155 219 0 2 -24 43 -54 92 -44 73 -111 205
-156 309 -88 200 -166 486 -195 715 -4 30 -9 64 -12 75 -9 38 -11 480 -3 558
32 301 97 563 201 814 186 446 460 804 866 1133 35 28 196 138 259 176 223
135 546 266 779 315 22 5 51 11 65 14 14 3 39 7 55 10 17 3 41 7 55 10 50 9
86 14 155 20 39 4 72 8 73 10 6 5 454 -3 482 -8z"/>
<path d="M5035 7483 c-49 -12 -126 -58 -168 -100 -56 -56 -106 -149 -144 -268
-25 -82 -28 -103 -27 -230 0 -126 3 -149 28 -225 36 -109 84 -206 143 -288
l46 -64 -29 -27 c-16 -14 -68 -60 -115 -101 -47 -41 -103 -91 -125 -109 -44
-39 -191 -131 -209 -131 -6 0 -37 66 -70 148 -89 226 -164 359 -254 452 -122
125 -281 174 -445 136 -81 -19 -115 -36 -167 -83 -104 -94 -141 -280 -88 -441
33 -99 140 -228 253 -305 144 -98 351 -170 524 -181 41 -2 75 -6 76 -8 5 -5
47 -130 51 -148 2 -8 10 -42 19 -75 9 -33 19 -69 21 -80 7 -34 36 -158 46
-200 5 -22 11 -53 14 -70 3 -16 14 -79 25 -140 11 -60 22 -128 25 -150 3 -22
10 -62 15 -90 5 -27 12 -72 15 -100 3 -27 8 -63 10 -80 7 -44 13 -93 20 -150
3 -27 8 -63 10 -80 3 -16 7 -57 10 -90 3 -33 8 -73 10 -90 2 -16 7 -61 10
-100 8 -83 29 -124 75 -146 81 -39 170 16 173 108 1 36 -10 174 -18 212 -2 9
-6 48 -9 86 -4 39 -8 81 -11 95 -2 14 -7 48 -10 75 -4 28 -8 65 -11 83 -2 17
-6 49 -9 70 -7 55 -17 124 -21 147 -4 22 -19 117 -29 180 -3 22 -12 72 -20
110 -8 39 -16 84 -19 100 -3 17 -8 39 -10 50 -2 11 -12 56 -21 100 -18 87 -42
182 -81 315 -13 46 -24 89 -24 95 0 6 15 16 33 23 39 14 180 101 222 136 105
89 135 116 180 156 27 25 74 65 103 89 62 51 43 59 222 -94 134 -116 261 -215
276 -215 5 -1 21 -11 36 -23 l27 -22 -24 -95 c-14 -52 -29 -120 -35 -150 -12
-64 -18 -96 -25 -130 -2 -14 -7 -38 -9 -55 -3 -16 -12 -73 -20 -125 -17 -108
-27 -187 -40 -315 -3 -33 -8 -84 -11 -114 -3 -30 -8 -86 -11 -125 -3 -39 -7
-91 -9 -116 -6 -81 -17 -312 -20 -440 -4 -172 18 -217 109 -227 39 -5 51 -1
81 22 20 15 40 37 45 49 4 12 11 116 15 232 4 115 8 229 10 254 7 116 23 317
30 370 2 19 7 64 10 100 3 36 10 97 15 135 6 39 12 84 14 100 3 17 9 59 15 95
6 36 13 83 16 105 4 22 11 60 17 85 5 25 12 57 15 72 2 16 14 67 26 115 l23
86 99 0 c194 -2 329 28 505 110 168 79 315 225 365 367 39 108 24 282 -31 377
-63 107 -161 155 -324 160 -92 2 -115 -1 -185 -25 -214 -72 -358 -220 -521
-536 -33 -66 -65 -121 -70 -123 -10 -3 -135 89 -220 163 -33 28 -81 71 -109
94 -27 24 -49 46 -48 50 1 3 18 31 38 61 117 173 177 368 171 559 -3 127 -25
218 -78 327 -48 100 -129 181 -209 211 -50 18 -158 26 -204 15z m133 -259 c61
-43 114 -184 114 -309 1 -128 -51 -289 -130 -404 l-37 -53 -31 37 c-81 93
-148 272 -147 395 0 133 73 314 136 340 34 14 70 12 95 -6z m-1327 -800 c76
-24 141 -98 217 -250 32 -63 102 -235 102 -251 0 -15 -190 42 -261 78 -132 66
-237 165 -259 243 -13 48 -6 120 16 153 26 40 103 51 185 27z m2689 6 c47 -13
70 -49 72 -113 1 -80 -19 -124 -85 -190 -119 -119 -300 -193 -498 -201 l-78
-4 15 37 c42 103 164 288 235 359 100 99 229 142 339 112z"/>
<path d="M3619 2549 c-77 -13 -139 -67 -168 -145 -40 -110 5 -222 114 -282 28
-16 155 -17 1560 -17 l1530 0 47 33 c148 102 134 311 -26 395 l-41 21 -1491 1
c-820 0 -1506 -3 -1525 -6z"/>
<path d="M3841 1846 c-77 -27 -140 -110 -141 -186 0 -94 65 -187 145 -208 27
-7 453 -10 1295 -9 1206 2 1256 3 1289 21 151 82 146 304 -9 374 -31 15 -164
16 -1291 17 -866 1 -1266 -2 -1288 -9z"/>
<path d="M4053 1180 c-133 -61 -145 -242 -22 -325 l44 -30 1015 0 c561 -1
1031 3 1050 8 161 41 184 264 35 345 -27 15 -122 17 -1057 18 -949 1 -1031 0
-1065 -16z"/>
</g>
</svg>
